# xmcd
#
# Track frame offsets:
#	150
#	14233
#	30303
#	44709
#	61563
#	80027
#	95948
#	119457
#	138417
#	156497
#	171360
#	189971
#	210028
#
# Disc length: 3022 seconds
#
# Revision: 1
# Processed by: cddbd v1.5.2PL0 Copyright (c) Steve Scherf et al.
# Submitted via: audiograbber 1.83.01
#
DISCID=b40bcc0d
DTITLE=T. Graham Brown - Forever Changed
DYEAR=2014
DGENRE=Country
TTITLE0=He'll Take Care Of You (Feat. Vince Gill)
TTITLE1=From A Stronger Place
TTITLE2=Soul Talk (Feat. Jason Crabb)
TTITLE3=Forever Changed
TTITLE4=Shadow Of Doubt (Feat. Leon Russell)
TTITLE5=Power Of Love(Feat. Jeff and Sherri Easter)
TTITLE6=Out Of The Rain
TTITLE7=People Get Ready (Feat. The Oak Ridge Boys, Jason Crabb, Leon Russell &
TTITLE7=Steve Cropper)
TTITLE8=Pillow Of Mercy (Feat. The Booth Brothers)
TTITLE9=Midnight Rainbow (Feat. Three Bridges)
TTITLE10=Which Way To Pray (Feat. Sonja Isaacs)
TTITLE11=How Do You Know (Feat. The Oak Ridge Boys)
TTITLE12=Wine Into Water (Feat. Jimmy Fortune)
EXTD=
EXTT0=
EXTT1=
EXTT2=
EXTT3=
EXTT4=
EXTT5=
EXTT6=
EXTT7=
EXTT8=
EXTT9=
EXTT10=
EXTT11=
EXTT12=
PLAYORDER=
